# MagicaVoxel @ Ephtracy

# group
g BishopWhite

# material
mtllib BishopWhite.mtl
usemtl palette

# normals
vn -1 0 0
vn 1 0 0
vn 0 0 1
vn 0 0 -1
vn 0 -1 0
vn 0 1 0

# texcoords
vt 0.958984 0.5
vt 0.966797 0.5

# verts
v -5 0 3
v -5 0 -2
v -5 1 3
v -5 1 2
v -5 1 -1
v -5 1 -2
v -5 2 2
v -5 2 -1
v -4 0 4
v -4 0 3
v -4 0 -2
v -4 0 -3
v -4 1 3
v -4 1 2
v -4 1 -1
v -4 1 -2
v -4 2 4
v -4 2 2
v -4 2 1
v -4 2 -0
v -4 2 -1
v -4 2 -3
v -4 3 1
v -4 3 -0
v -3 0 5
v -3 0 4
v -3 0 -3
v -3 0 -4
v -3 2 5
v -3 2 4
v -3 2 2
v -3 2 1
v -3 2 -0
v -3 2 -1
v -3 2 -3
v -3 2 -4
v -3 3 2
v -3 3 1
v -3 3 -0
v -3 3 -1
v -3 4 1
v -3 4 -0
v -2 0 6
v -2 0 5
v -2 0 -4
v -2 0 -5
v -2 1 6
v -2 1 5
v -2 1 -4
v -2 1 -5
v -2 2 3
v -2 2 2
v -2 2 -1
v -2 2 -2
v -2 3 2
v -2 3 1
v -2 3 -0
v -2 3 -1
v -2 4 3
v -2 4 2
v -2 4 1
v -2 4 -0
v -2 4 -1
v -2 4 -2
v -2 10 3
v -2 10 -2
v -2 11 3
v -2 11 -2
v -2 12 2
v -2 12 -1
v -2 14 2
v -2 14 -1
v -1 1 6
v -1 1 5
v -1 1 -4
v -1 1 -5
v -1 2 6
v -1 2 5
v -1 2 4
v -1 2 3
v -1 2 -2
v -1 2 -3
v -1 2 -4
v -1 2 -5
v -1 3 4
v -1 3 3
v -1 3 -2
v -1 3 -3
v -1 4 2
v -1 4 1
v -1 4 -0
v -1 4 -1
v -1 10 2
v -1 10 -1
v -1 11 2
v -1 11 -1
v -1 12 3
v -1 12 2
v -1 12 -1
v -1 12 -2
v -1 14 3
v -1 14 2
v -1 14 -1
v -1 14 -2
v -1 15 2
v -1 15 -1
v 0 2 5
v 0 2 4
v 0 2 -3
v 0 2 -4
v 0 3 5
v 0 3 4
v 0 3 3
v 0 3 -2
v 0 3 -3
v 0 3 -4
v 0 4 4
v 0 4 3
v 0 4 -2
v 0 4 -3
v 1 2 5
v 1 2 4
v 1 2 -3
v 1 2 -4
v 1 3 5
v 1 3 4
v 1 3 3
v 1 3 -2
v 1 3 -3
v 1 3 -4
v 1 4 4
v 1 4 3
v 1 4 -2
v 1 4 -3
v 2 1 6
v 2 1 5
v 2 1 -4
v 2 1 -5
v 2 2 6
v 2 2 5
v 2 2 4
v 2 2 3
v 2 2 -2
v 2 2 -3
v 2 2 -4
v 2 2 -5
v 2 3 4
v 2 3 3
v 2 3 -2
v 2 3 -3
v 2 4 2
v 2 4 1
v 2 4 -0
v 2 4 -1
v 2 10 2
v 2 10 -1
v 2 11 2
v 2 11 -1
v 2 12 3
v 2 12 2
v 2 12 -1
v 2 12 -2
v 2 14 3
v 2 14 2
v 2 14 -1
v 2 14 -2
v 2 15 2
v 2 15 -1
v 3 0 6
v 3 0 5
v 3 0 -4
v 3 0 -5
v 3 1 6
v 3 1 5
v 3 1 -4
v 3 1 -5
v 3 2 3
v 3 2 2
v 3 2 -1
v 3 2 -2
v 3 3 2
v 3 3 1
v 3 3 -0
v 3 3 -1
v 3 4 3
v 3 4 2
v 3 4 1
v 3 4 -0
v 3 4 -1
v 3 4 -2
v 3 10 3
v 3 10 -2
v 3 11 3
v 3 11 -2
v 3 12 2
v 3 12 -1
v 3 14 2
v 3 14 -1
v 4 0 5
v 4 0 4
v 4 0 -3
v 4 0 -4
v 4 2 5
v 4 2 4
v 4 2 2
v 4 2 1
v 4 2 -0
v 4 2 -1
v 4 2 -3
v 4 2 -4
v 4 3 2
v 4 3 1
v 4 3 -0
v 4 3 -1
v 4 4 1
v 4 4 -0
v 5 0 4
v 5 0 3
v 5 0 -2
v 5 0 -3
v 5 1 3
v 5 1 2
v 5 1 -1
v 5 1 -2
v 5 2 4
v 5 2 2
v 5 2 1
v 5 2 -0
v 5 2 -1
v 5 2 -3
v 5 3 1
v 5 3 -0
v 6 0 3
v 6 0 -2
v 6 1 3
v 6 1 2
v 6 1 -1
v 6 1 -2
v 6 2 2
v 6 2 -1
v -2 0 6
v -2 1 6
v -1 1 6
v -1 2 6
v 2 1 6
v 2 2 6
v 3 0 6
v 3 1 6
v -3 0 5
v -3 2 5
v -2 0 5
v -2 1 5
v -1 1 5
v -1 2 5
v 0 2 5
v 0 3 5
v 1 2 5
v 1 3 5
v 2 1 5
v 2 2 5
v 3 0 5
v 3 1 5
v 4 0 5
v 4 2 5
v -4 0 4
v -4 2 4
v -3 0 4
v -3 2 4
v -1 2 4
v -1 3 4
v 0 2 4
v 0 3 4
v 0 4 4
v 1 2 4
v 1 3 4
v 1 4 4
v 2 2 4
v 2 3 4
v 4 0 4
v 4 2 4
v 5 0 4
v 5 2 4
v -5 0 3
v -5 1 3
v -4 0 3
v -4 1 3
v -2 2 3
v -2 4 3
v -2 10 3
v -2 11 3
v -1 2 3
v -1 3 3
v -1 4 3
v -1 12 3
v -1 14 3
v 0 3 3
v 0 4 3
v 1 3 3
v 1 4 3
v 2 2 3
v 2 3 3
v 2 4 3
v 2 12 3
v 2 14 3
v 3 2 3
v 3 4 3
v 3 10 3
v 3 11 3
v 5 0 3
v 5 1 3
v 6 0 3
v 6 1 3
v -5 1 2
v -5 2 2
v -4 1 2
v -4 2 2
v -3 2 2
v -3 3 2
v -2 2 2
v -2 3 2
v -2 12 2
v -2 14 2
v -1 4 2
v -1 10 2
v -1 11 2
v -1 12 2
v -1 14 2
v -1 15 2
v 0 4 2
v 1 4 2
v 2 4 2
v 2 10 2
v 2 11 2
v 2 12 2
v 2 14 2
v 2 15 2
v 3 2 2
v 3 3 2
v 3 12 2
v 3 14 2
v 4 2 2
v 4 3 2
v 5 1 2
v 5 2 2
v 6 1 2
v 6 2 2
v -4 2 1
v -4 3 1
v -3 2 1
v -3 3 1
v -3 4 1
v -2 3 1
v -2 4 1
v 3 3 1
v 3 4 1
v 4 2 1
v 4 3 1
v 4 4 1
v 5 2 1
v 5 3 1
v -4 2 -0
v -4 3 -0
v -3 2 -0
v -3 3 -0
v -3 4 -0
v -2 3 -0
v -2 4 -0
v 3 3 -0
v 3 4 -0
v 4 2 -0
v 4 3 -0
v 4 4 -0
v 5 2 -0
v 5 3 -0
v -5 1 -1
v -5 2 -1
v -4 1 -1
v -4 2 -1
v -3 2 -1
v -3 3 -1
v -2 2 -1
v -2 3 -1
v -2 12 -1
v -2 14 -1
v -1 4 -1
v -1 10 -1
v -1 11 -1
v -1 12 -1
v -1 14 -1
v -1 15 -1
v 0 4 -1
v 1 4 -1
v 2 4 -1
v 2 10 -1
v 2 11 -1
v 2 12 -1
v 2 14 -1
v 2 15 -1
v 3 2 -1
v 3 3 -1
v 3 12 -1
v 3 14 -1
v 4 2 -1
v 4 3 -1
v 5 1 -1
v 5 2 -1
v 6 1 -1
v 6 2 -1
v -5 0 -2
v -5 1 -2
v -4 0 -2
v -4 1 -2
v -2 2 -2
v -2 4 -2
v -2 10 -2
v -2 11 -2
v -1 2 -2
v -1 3 -2
v -1 4 -2
v -1 12 -2
v -1 14 -2
v 0 3 -2
v 0 4 -2
v 1 3 -2
v 1 4 -2
v 2 2 -2
v 2 3 -2
v 2 4 -2
v 2 12 -2
v 2 14 -2
v 3 2 -2
v 3 4 -2
v 3 10 -2
v 3 11 -2
v 5 0 -2
v 5 1 -2
v 6 0 -2
v 6 1 -2
v -4 0 -3
v -4 2 -3
v -3 0 -3
v -3 2 -3
v -1 2 -3
v -1 3 -3
v 0 2 -3
v 0 3 -3
v 0 4 -3
v 1 2 -3
v 1 3 -3
v 1 4 -3
v 2 2 -3
v 2 3 -3
v 4 0 -3
v 4 2 -3
v 5 0 -3
v 5 2 -3
v -3 0 -4
v -3 2 -4
v -2 0 -4
v -2 1 -4
v -1 1 -4
v -1 2 -4
v 0 2 -4
v 0 3 -4
v 1 2 -4
v 1 3 -4
v 2 1 -4
v 2 2 -4
v 3 0 -4
v 3 1 -4
v 4 0 -4
v 4 2 -4
v -2 0 -5
v -2 1 -5
v -1 1 -5
v -1 2 -5
v 2 1 -5
v 2 2 -5
v 3 0 -5
v 3 1 -5
v -2 0 6
v 3 0 6
v -3 0 5
v -2 0 5
v 3 0 5
v 4 0 5
v -4 0 4
v -3 0 4
v 4 0 4
v 5 0 4
v -5 0 3
v -4 0 3
v 5 0 3
v 6 0 3
v -5 0 -2
v -4 0 -2
v 5 0 -2
v 6 0 -2
v -4 0 -3
v -3 0 -3
v 4 0 -3
v 5 0 -3
v -3 0 -4
v -2 0 -4
v 3 0 -4
v 4 0 -4
v -2 0 -5
v 3 0 -5
v -2 10 3
v 3 10 3
v -1 10 2
v 2 10 2
v -1 10 -1
v 2 10 -1
v -2 10 -2
v 3 10 -2
v -1 12 3
v 2 12 3
v -2 12 2
v -1 12 2
v 2 12 2
v 3 12 2
v -2 12 -1
v -1 12 -1
v 2 12 -1
v 3 12 -1
v -1 12 -2
v 2 12 -2
v -2 1 6
v -1 1 6
v 2 1 6
v 3 1 6
v -2 1 5
v -1 1 5
v 2 1 5
v 3 1 5
v -5 1 3
v -4 1 3
v 5 1 3
v 6 1 3
v -5 1 2
v -4 1 2
v 5 1 2
v 6 1 2
v -5 1 -1
v -4 1 -1
v 5 1 -1
v 6 1 -1
v -5 1 -2
v -4 1 -2
v 5 1 -2
v 6 1 -2
v -2 1 -4
v -1 1 -4
v 2 1 -4
v 3 1 -4
v -2 1 -5
v -1 1 -5
v 2 1 -5
v 3 1 -5
v -1 2 6
v 2 2 6
v -3 2 5
v -1 2 5
v 0 2 5
v 1 2 5
v 2 2 5
v 4 2 5
v -4 2 4
v -3 2 4
v -1 2 4
v 0 2 4
v 1 2 4
v 2 2 4
v 4 2 4
v 5 2 4
v -2 2 3
v -1 2 3
v 2 2 3
v 3 2 3
v -5 2 2
v -4 2 2
v -3 2 2
v -2 2 2
v 3 2 2
v 4 2 2
v 5 2 2
v 6 2 2
v -4 2 1
v -3 2 1
v 4 2 1
v 5 2 1
v -4 2 -0
v -3 2 -0
v 4 2 -0
v 5 2 -0
v -5 2 -1
v -4 2 -1
v -3 2 -1
v -2 2 -1
v 3 2 -1
v 4 2 -1
v 5 2 -1
v 6 2 -1
v -2 2 -2
v -1 2 -2
v 2 2 -2
v 3 2 -2
v -4 2 -3
v -3 2 -3
v -1 2 -3
v 0 2 -3
v 1 2 -3
v 2 2 -3
v 4 2 -3
v 5 2 -3
v -3 2 -4
v -1 2 -4
v 0 2 -4
v 1 2 -4
v 2 2 -4
v 4 2 -4
v -1 2 -5
v 2 2 -5
v 0 3 5
v 1 3 5
v -1 3 4
v 0 3 4
v 1 3 4
v 2 3 4
v -1 3 3
v 0 3 3
v 1 3 3
v 2 3 3
v -3 3 2
v -2 3 2
v 3 3 2
v 4 3 2
v -4 3 1
v -3 3 1
v -2 3 1
v 3 3 1
v 4 3 1
v 5 3 1
v -4 3 -0
v -3 3 -0
v -2 3 -0
v 3 3 -0
v 4 3 -0
v 5 3 -0
v -3 3 -1
v -2 3 -1
v 3 3 -1
v 4 3 -1
v -1 3 -2
v 0 3 -2
v 1 3 -2
v 2 3 -2
v -1 3 -3
v 0 3 -3
v 1 3 -3
v 2 3 -3
v 0 3 -4
v 1 3 -4
v 0 4 4
v 1 4 4
v -2 4 3
v -1 4 3
v 0 4 3
v 1 4 3
v 2 4 3
v 3 4 3
v -2 4 2
v -1 4 2
v 0 4 2
v 1 4 2
v 2 4 2
v 3 4 2
v -3 4 1
v -2 4 1
v -1 4 1
v 2 4 1
v 3 4 1
v 4 4 1
v -3 4 -0
v -2 4 -0
v -1 4 -0
v 2 4 -0
v 3 4 -0
v 4 4 -0
v -2 4 -1
v -1 4 -1
v 0 4 -1
v 1 4 -1
v 2 4 -1
v 3 4 -1
v -2 4 -2
v -1 4 -2
v 0 4 -2
v 1 4 -2
v 2 4 -2
v 3 4 -2
v 0 4 -3
v 1 4 -3
v -2 11 3
v 3 11 3
v -1 11 2
v 2 11 2
v -1 11 -1
v 2 11 -1
v -2 11 -2
v 3 11 -2
v -1 14 3
v 2 14 3
v -2 14 2
v -1 14 2
v 2 14 2
v 3 14 2
v -2 14 -1
v -1 14 -1
v 2 14 -1
v 3 14 -1
v -1 14 -2
v 2 14 -2
v -1 15 2
v 2 15 2
v -1 15 -1
v 2 15 -1

# faces
f 3/2/1 2/2/1 1/2/1
f 4/2/1 2/2/1 3/2/1
f 5/2/1 2/2/1 4/2/1
f 6/2/1 2/2/1 5/2/1
f 7/2/1 5/2/1 4/2/1
f 8/2/1 5/2/1 7/2/1
f 13/2/1 10/2/1 9/2/1
f 16/2/1 12/2/1 11/2/1
f 17/2/1 14/2/1 13/2/1
f 17/2/1 13/2/1 9/2/1
f 18/2/1 14/2/1 17/2/1
f 21/2/1 16/2/1 15/2/1
f 22/2/1 12/2/1 16/2/1
f 22/2/1 16/2/1 21/2/1
f 23/1/1 20/1/1 19/1/1
f 24/1/1 20/1/1 23/1/1
f 29/2/1 26/2/1 25/2/1
f 30/2/1 26/2/1 29/2/1
f 35/2/1 28/2/1 27/2/1
f 36/2/1 28/2/1 35/2/1
f 37/1/1 32/1/1 31/1/1
f 38/1/1 32/1/1 37/1/1
f 39/1/1 34/1/1 33/1/1
f 40/1/1 34/1/1 39/1/1
f 41/1/1 39/1/1 38/1/1
f 42/1/1 39/1/1 41/1/1
f 47/2/1 44/2/1 43/2/1
f 48/2/1 44/2/1 47/2/1
f 49/2/1 46/2/1 45/2/1
f 50/2/1 46/2/1 49/2/1
f 55/1/1 52/1/1 51/1/1
f 58/1/1 54/1/1 53/1/1
f 59/1/1 55/1/1 51/1/1
f 60/2/1 56/2/1 55/2/1
f 60/1/1 55/1/1 59/1/1
f 61/2/1 56/2/1 60/2/1
f 62/2/1 58/2/1 57/2/1
f 63/1/1 54/1/1 58/1/1
f 63/2/1 58/2/1 62/2/1
f 64/1/1 54/1/1 63/1/1
f 67/2/1 66/2/1 65/2/1
f 68/2/1 66/2/1 67/2/1
f 71/1/1 70/1/1 69/1/1
f 72/1/1 70/1/1 71/1/1
f 77/2/1 74/2/1 73/2/1
f 78/2/1 74/2/1 77/2/1
f 83/2/1 76/2/1 75/2/1
f 84/2/1 76/2/1 83/2/1
f 85/1/1 80/1/1 79/1/1
f 86/1/1 80/1/1 85/1/1
f 87/1/1 82/1/1 81/1/1
f 88/1/1 82/1/1 87/1/1
f 93/1/1 90/1/1 89/1/1
f 93/1/1 92/1/1 91/1/1
f 93/1/1 91/1/1 90/1/1
f 94/1/1 92/1/1 93/1/1
f 98/1/1 96/1/1 95/1/1
f 99/1/1 96/1/1 98/1/1
f 101/1/1 98/1/1 97/1/1
f 102/1/1 98/1/1 101/1/1
f 103/1/1 100/1/1 99/1/1
f 104/1/1 100/1/1 103/1/1
f 105/1/1 103/1/1 102/1/1
f 106/1/1 103/1/1 105/1/1
f 111/1/1 108/1/1 107/1/1
f 112/1/1 108/1/1 111/1/1
f 115/1/1 110/1/1 109/1/1
f 116/1/1 110/1/1 115/1/1
f 117/1/1 113/1/1 112/1/1
f 118/1/1 113/1/1 117/1/1
f 119/1/1 115/1/1 114/1/1
f 120/1/1 115/1/1 119/1/1
f 121/1/2 122/1/2 125/1/2
f 125/1/2 122/1/2 126/1/2
f 123/1/2 124/1/2 129/1/2
f 129/1/2 124/1/2 130/1/2
f 126/1/2 127/1/2 131/1/2
f 131/1/2 127/1/2 132/1/2
f 128/1/2 129/1/2 133/1/2
f 133/1/2 129/1/2 134/1/2
f 135/2/2 136/2/2 139/2/2
f 139/2/2 136/2/2 140/2/2
f 137/2/2 138/2/2 145/2/2
f 145/2/2 138/2/2 146/2/2
f 141/1/2 142/1/2 147/1/2
f 147/1/2 142/1/2 148/1/2
f 143/1/2 144/1/2 149/1/2
f 149/1/2 144/1/2 150/1/2
f 151/1/2 152/1/2 155/1/2
f 153/1/2 154/1/2 155/1/2
f 152/1/2 153/1/2 155/1/2
f 155/1/2 154/1/2 156/1/2
f 157/1/2 158/1/2 160/1/2
f 160/1/2 158/1/2 161/1/2
f 159/1/2 160/1/2 163/1/2
f 163/1/2 160/1/2 164/1/2
f 161/1/2 162/1/2 165/1/2
f 165/1/2 162/1/2 166/1/2
f 164/1/2 165/1/2 167/1/2
f 167/1/2 165/1/2 168/1/2
f 169/2/2 170/2/2 173/2/2
f 173/2/2 170/2/2 174/2/2
f 171/2/2 172/2/2 175/2/2
f 175/2/2 172/2/2 176/2/2
f 177/1/2 178/1/2 181/1/2
f 179/1/2 180/1/2 184/1/2
f 177/1/2 181/1/2 185/1/2
f 181/2/2 182/2/2 186/2/2
f 185/1/2 181/1/2 186/1/2
f 186/2/2 182/2/2 187/2/2
f 183/2/2 184/2/2 188/2/2
f 184/1/2 180/1/2 189/1/2
f 188/2/2 184/2/2 189/2/2
f 189/1/2 180/1/2 190/1/2
f 191/2/2 192/2/2 193/2/2
f 193/2/2 192/2/2 194/2/2
f 195/1/2 196/1/2 197/1/2
f 197/1/2 196/1/2 198/1/2
f 199/2/2 200/2/2 203/2/2
f 203/2/2 200/2/2 204/2/2
f 201/2/2 202/2/2 209/2/2
f 209/2/2 202/2/2 210/2/2
f 205/1/2 206/1/2 211/1/2
f 211/1/2 206/1/2 212/1/2
f 207/1/2 208/1/2 213/1/2
f 213/1/2 208/1/2 214/1/2
f 212/1/2 213/1/2 215/1/2
f 215/1/2 213/1/2 216/1/2
f 217/2/2 218/2/2 221/2/2
f 219/2/2 220/2/2 224/2/2
f 221/2/2 222/2/2 225/2/2
f 217/2/2 221/2/2 225/2/2
f 225/2/2 222/2/2 226/2/2
f 223/2/2 224/2/2 229/2/2
f 224/2/2 220/2/2 230/2/2
f 229/2/2 224/2/2 230/2/2
f 227/1/2 228/1/2 231/1/2
f 231/1/2 228/1/2 232/1/2
f 233/2/2 234/2/2 235/2/2
f 235/2/2 234/2/2 236/2/2
f 236/2/2 234/2/2 237/2/2
f 237/2/2 234/2/2 238/2/2
f 236/2/2 237/2/2 239/2/2
f 239/2/2 237/2/2 240/2/2
f 243/2/3 242/2/3 241/2/3
f 245/2/3 243/2/3 241/2/3
f 245/2/3 244/2/3 243/2/3
f 246/2/3 244/2/3 245/2/3
f 247/2/3 245/2/3 241/2/3
f 248/2/3 245/2/3 247/2/3
f 251/2/3 250/2/3 249/2/3
f 252/2/3 250/2/3 251/2/3
f 253/2/3 250/2/3 252/2/3
f 254/2/3 250/2/3 253/2/3
f 257/1/3 256/1/3 255/1/3
f 258/1/3 256/1/3 257/1/3
f 262/2/3 260/2/3 259/2/3
f 263/2/3 262/2/3 261/2/3
f 264/2/3 260/2/3 262/2/3
f 264/2/3 262/2/3 263/2/3
f 267/2/3 266/2/3 265/2/3
f 268/2/3 266/2/3 267/2/3
f 271/1/3 270/1/3 269/1/3
f 272/1/3 270/1/3 271/1/3
f 275/1/3 273/1/3 272/1/3
f 276/1/3 273/1/3 275/1/3
f 277/1/3 275/1/3 274/1/3
f 278/1/3 275/1/3 277/1/3
f 281/2/3 280/2/3 279/2/3
f 282/2/3 280/2/3 281/2/3
f 285/2/3 284/2/3 283/2/3
f 286/2/3 284/2/3 285/2/3
f 291/1/3 288/1/3 287/1/3
f 292/1/3 288/1/3 291/1/3
f 293/1/3 288/1/3 292/1/3
f 296/2/3 293/2/3 292/2/3
f 297/2/3 293/2/3 296/2/3
f 301/2/3 299/2/3 298/2/3
f 302/2/3 299/2/3 301/2/3
f 303/1/3 295/1/3 294/1/3
f 304/1/3 295/1/3 303/1/3
f 305/1/3 302/1/3 301/1/3
f 305/1/3 301/1/3 300/1/3
f 306/1/3 302/1/3 305/1/3
f 307/2/3 290/2/3 289/2/3
f 308/2/3 290/2/3 307/2/3
f 311/2/3 310/2/3 309/2/3
f 312/2/3 310/2/3 311/2/3
f 315/2/3 314/2/3 313/2/3
f 316/2/3 314/2/3 315/2/3
f 319/1/3 318/1/3 317/1/3
f 320/1/3 318/1/3 319/1/3
f 326/1/3 322/1/3 321/1/3
f 327/1/3 322/1/3 326/1/3
f 329/1/3 324/1/3 323/1/3
f 330/1/3 324/1/3 329/1/3
f 331/1/3 324/1/3 330/1/3
f 332/1/3 324/1/3 331/1/3
f 333/1/3 326/1/3 325/1/3
f 334/1/3 326/1/3 333/1/3
f 335/1/3 328/1/3 327/1/3
f 336/1/3 328/1/3 335/1/3
f 339/1/3 335/1/3 334/1/3
f 340/1/3 335/1/3 339/1/3
f 341/1/3 338/1/3 337/1/3
f 342/1/3 338/1/3 341/1/3
f 345/2/3 344/2/3 343/2/3
f 346/2/3 344/2/3 345/2/3
f 349/1/3 348/1/3 347/1/3
f 350/1/3 348/1/3 349/1/3
f 352/1/3 351/1/3 350/1/3
f 353/1/3 351/1/3 352/1/3
f 357/1/3 355/1/3 354/1/3
f 358/1/3 355/1/3 357/1/3
f 359/1/3 357/1/3 356/1/3
f 360/1/3 357/1/3 359/1/3
f 361/1/4 362/1/4 363/1/4
f 363/1/4 362/1/4 364/1/4
f 364/1/4 365/1/4 366/1/4
f 366/1/4 365/1/4 367/1/4
f 368/1/4 369/1/4 371/1/4
f 371/1/4 369/1/4 372/1/4
f 370/1/4 371/1/4 373/1/4
f 373/1/4 371/1/4 374/1/4
f 375/2/4 376/2/4 377/2/4
f 377/2/4 376/2/4 378/2/4
f 379/1/4 380/1/4 381/1/4
f 381/1/4 380/1/4 382/1/4
f 383/1/4 384/1/4 388/1/4
f 388/1/4 384/1/4 389/1/4
f 385/1/4 386/1/4 391/1/4
f 391/1/4 386/1/4 392/1/4
f 392/1/4 386/1/4 393/1/4
f 393/1/4 386/1/4 394/1/4
f 387/1/4 388/1/4 395/1/4
f 395/1/4 388/1/4 396/1/4
f 389/1/4 390/1/4 397/1/4
f 397/1/4 390/1/4 398/1/4
f 396/1/4 397/1/4 401/1/4
f 401/1/4 397/1/4 402/1/4
f 399/1/4 400/1/4 403/1/4
f 403/1/4 400/1/4 404/1/4
f 405/2/4 406/2/4 407/2/4
f 407/2/4 406/2/4 408/2/4
f 409/2/4 410/2/4 411/2/4
f 411/2/4 410/2/4 412/2/4
f 413/1/4 414/1/4 417/1/4
f 417/1/4 414/1/4 418/1/4
f 418/1/4 414/1/4 419/1/4
f 418/2/4 419/2/4 422/2/4
f 422/2/4 419/2/4 423/2/4
f 424/2/4 425/2/4 427/2/4
f 427/2/4 425/2/4 428/2/4
f 420/1/4 421/1/4 429/1/4
f 429/1/4 421/1/4 430/1/4
f 427/1/4 428/1/4 431/1/4
f 426/1/4 427/1/4 431/1/4
f 431/1/4 428/1/4 432/1/4
f 415/2/4 416/2/4 433/2/4
f 433/2/4 416/2/4 434/2/4
f 435/2/4 436/2/4 437/2/4
f 437/2/4 436/2/4 438/2/4
f 439/2/4 440/2/4 441/2/4
f 441/2/4 440/2/4 442/2/4
f 443/1/4 444/1/4 445/1/4
f 445/1/4 444/1/4 446/1/4
f 446/1/4 447/1/4 449/1/4
f 449/1/4 447/1/4 450/1/4
f 448/1/4 449/1/4 451/1/4
f 451/1/4 449/1/4 452/1/4
f 453/2/4 454/2/4 455/2/4
f 455/2/4 454/2/4 456/2/4
f 457/2/4 458/2/4 459/2/4
f 459/2/4 458/2/4 460/2/4
f 460/2/4 458/2/4 461/2/4
f 461/2/4 458/2/4 462/2/4
f 463/1/4 464/1/4 465/1/4
f 465/1/4 464/1/4 466/1/4
f 467/2/4 468/2/4 470/2/4
f 469/2/4 470/2/4 471/2/4
f 470/2/4 468/2/4 472/2/4
f 471/2/4 470/2/4 472/2/4
f 473/2/4 474/2/4 475/2/4
f 473/2/4 475/2/4 477/2/4
f 475/2/4 476/2/4 477/2/4
f 477/2/4 476/2/4 478/2/4
f 473/2/4 477/2/4 479/2/4
f 479/2/4 477/2/4 480/2/4
f 484/2/5 482/2/5 481/2/5
f 485/2/5 482/2/5 484/2/5
f 488/2/5 484/2/5 483/2/5
f 488/2/5 486/2/5 485/2/5
f 488/2/5 485/2/5 484/2/5
f 489/2/5 486/2/5 488/2/5
f 492/2/5 488/2/5 487/2/5
f 492/2/5 490/2/5 489/2/5
f 492/2/5 489/2/5 488/2/5
f 493/2/5 490/2/5 492/2/5
f 495/2/5 492/2/5 491/2/5
f 495/2/5 494/2/5 493/2/5
f 495/2/5 493/2/5 492/2/5
f 496/2/5 494/2/5 495/2/5
f 497/2/5 494/2/5 496/2/5
f 498/2/5 494/2/5 497/2/5
f 499/2/5 497/2/5 496/2/5
f 500/2/5 497/2/5 499/2/5
f 501/2/5 497/2/5 500/2/5
f 502/2/5 497/2/5 501/2/5
f 503/2/5 501/2/5 500/2/5
f 504/2/5 501/2/5 503/2/5
f 505/2/5 501/2/5 504/2/5
f 506/2/5 501/2/5 505/2/5
f 507/2/5 505/2/5 504/2/5
f 508/2/5 505/2/5 507/2/5
f 511/2/5 510/2/5 509/2/5
f 512/2/5 510/2/5 511/2/5
f 513/2/5 511/2/5 509/2/5
f 514/2/5 510/2/5 512/2/5
f 515/2/5 513/2/5 509/2/5
f 515/2/5 514/2/5 513/2/5
f 516/2/5 510/2/5 514/2/5
f 516/2/5 514/2/5 515/2/5
f 520/1/5 518/1/5 517/1/5
f 521/1/5 518/1/5 520/1/5
f 523/1/5 520/1/5 519/1/5
f 524/1/5 520/1/5 523/1/5
f 525/1/5 522/1/5 521/1/5
f 526/1/5 522/1/5 525/1/5
f 527/1/5 525/1/5 524/1/5
f 528/1/5 525/1/5 527/1/5
f 529/2/6 530/2/6 533/2/6
f 533/2/6 530/2/6 534/2/6
f 531/2/6 532/2/6 535/2/6
f 535/2/6 532/2/6 536/2/6
f 537/2/6 538/2/6 541/2/6
f 541/2/6 538/2/6 542/2/6
f 539/2/6 540/2/6 543/2/6
f 543/2/6 540/2/6 544/2/6
f 545/2/6 546/2/6 549/2/6
f 549/2/6 546/2/6 550/2/6
f 547/2/6 548/2/6 551/2/6
f 551/2/6 548/2/6 552/2/6
f 553/2/6 554/2/6 557/2/6
f 557/2/6 554/2/6 558/2/6
f 555/2/6 556/2/6 559/2/6
f 559/2/6 556/2/6 560/2/6
f 561/2/6 562/2/6 564/2/6
f 564/2/6 562/2/6 565/2/6
f 565/2/6 562/2/6 566/2/6
f 566/2/6 562/2/6 567/2/6
f 563/2/6 564/2/6 570/2/6
f 564/2/6 565/2/6 570/2/6
f 570/2/6 565/2/6 571/2/6
f 571/2/6 565/2/6 572/2/6
f 566/2/6 567/2/6 573/2/6
f 567/2/6 568/2/6 573/2/6
f 573/2/6 568/2/6 574/2/6
f 574/2/6 568/2/6 575/2/6
f 570/2/6 571/2/6 577/2/6
f 569/2/6 570/2/6 577/2/6
f 577/2/6 571/2/6 578/2/6
f 575/2/6 576/2/6 579/2/6
f 574/2/6 575/2/6 579/2/6
f 579/2/6 576/2/6 580/2/6
f 569/2/6 577/2/6 582/2/6
f 582/2/6 577/2/6 583/2/6
f 583/2/6 577/2/6 584/2/6
f 580/2/6 576/2/6 585/2/6
f 585/2/6 576/2/6 586/2/6
f 586/2/6 576/2/6 587/2/6
f 581/2/6 582/2/6 589/2/6
f 582/2/6 583/2/6 589/2/6
f 589/2/6 583/2/6 590/2/6
f 587/2/6 588/2/6 591/2/6
f 586/2/6 587/2/6 591/2/6
f 591/2/6 588/2/6 592/2/6
f 581/2/6 589/2/6 593/2/6
f 592/2/6 588/2/6 596/2/6
f 593/2/6 594/2/6 597/2/6
f 581/2/6 593/2/6 597/2/6
f 597/2/6 594/2/6 598/2/6
f 598/2/6 594/2/6 599/2/6
f 595/2/6 596/2/6 602/2/6
f 596/2/6 588/2/6 603/2/6
f 602/2/6 596/2/6 603/2/6
f 603/2/6 588/2/6 604/2/6
f 599/2/6 600/2/6 605/2/6
f 598/2/6 599/2/6 605/2/6
f 601/2/6 602/2/6 608/2/6
f 602/2/6 603/2/6 608/2/6
f 605/2/6 606/2/6 609/2/6
f 598/2/6 605/2/6 609/2/6
f 609/2/6 606/2/6 610/2/6
f 610/2/6 606/2/6 611/2/6
f 607/2/6 608/2/6 614/2/6
f 608/2/6 603/2/6 615/2/6
f 614/2/6 608/2/6 615/2/6
f 615/2/6 603/2/6 616/2/6
f 611/2/6 612/2/6 617/2/6
f 610/2/6 611/2/6 617/2/6
f 617/2/6 612/2/6 618/2/6
f 618/2/6 612/2/6 619/2/6
f 613/2/6 614/2/6 620/2/6
f 614/2/6 615/2/6 620/2/6
f 620/2/6 615/2/6 621/2/6
f 621/2/6 615/2/6 622/2/6
f 618/2/6 619/2/6 623/2/6
f 620/2/6 621/2/6 623/2/6
f 619/2/6 620/2/6 623/2/6
f 623/2/6 621/2/6 624/2/6
f 625/1/6 626/1/6 628/1/6
f 628/1/6 626/1/6 629/1/6
f 627/1/6 628/1/6 631/1/6
f 631/1/6 628/1/6 632/1/6
f 629/1/6 630/1/6 633/1/6
f 633/1/6 630/1/6 634/1/6
f 635/1/6 636/1/6 640/1/6
f 640/1/6 636/1/6 641/1/6
f 637/1/6 638/1/6 642/1/6
f 642/1/6 638/1/6 643/1/6
f 639/1/6 640/1/6 645/1/6
f 645/1/6 640/1/6 646/1/6
f 643/1/6 644/1/6 649/1/6
f 649/1/6 644/1/6 650/1/6
f 646/1/6 647/1/6 651/1/6
f 651/1/6 647/1/6 652/1/6
f 648/1/6 649/1/6 653/1/6
f 653/1/6 649/1/6 654/1/6
f 655/1/6 656/1/6 659/1/6
f 659/1/6 656/1/6 660/1/6
f 657/1/6 658/1/6 661/1/6
f 661/1/6 658/1/6 662/1/6
f 660/1/6 661/1/6 663/1/6
f 663/1/6 661/1/6 664/1/6
f 665/1/6 666/1/6 669/1/6
f 669/1/6 666/1/6 670/1/6
f 667/1/6 668/1/6 673/1/6
f 668/2/6 669/2/6 674/2/6
f 673/1/6 668/1/6 674/1/6
f 669/1/6 670/1/6 675/1/6
f 674/2/6 669/2/6 675/2/6
f 670/2/6 671/2/6 676/2/6
f 675/1/6 670/1/6 676/1/6
f 671/1/6 672/1/6 677/1/6
f 676/2/6 671/2/6 677/2/6
f 677/1/6 672/1/6 678/1/6
f 673/2/6 674/2/6 680/2/6
f 680/2/6 674/2/6 681/2/6
f 677/2/6 678/2/6 682/2/6
f 682/2/6 678/2/6 683/2/6
f 680/1/6 681/1/6 685/1/6
f 679/1/6 680/1/6 685/1/6
f 685/1/6 681/1/6 686/1/6
f 686/1/6 681/1/6 687/1/6
f 682/1/6 683/1/6 688/1/6
f 683/1/6 684/1/6 688/1/6
f 688/1/6 684/1/6 689/1/6
f 689/1/6 684/1/6 690/1/6
f 686/2/6 687/2/6 691/2/6
f 691/2/6 687/2/6 692/2/6
f 688/2/6 689/2/6 695/2/6
f 695/2/6 689/2/6 696/2/6
f 691/1/6 692/1/6 697/1/6
f 692/2/6 693/2/6 698/2/6
f 697/1/6 692/1/6 698/1/6
f 693/1/6 694/1/6 699/1/6
f 698/2/6 693/2/6 699/2/6
f 694/2/6 695/2/6 700/2/6
f 699/1/6 694/1/6 700/1/6
f 695/1/6 696/1/6 701/1/6
f 700/2/6 695/2/6 701/2/6
f 701/1/6 696/1/6 702/1/6
f 699/1/6 700/1/6 703/1/6
f 703/1/6 700/1/6 704/1/6
f 705/2/6 706/2/6 707/2/6
f 707/2/6 706/2/6 708/2/6
f 705/2/6 707/2/6 709/2/6
f 708/2/6 706/2/6 710/2/6
f 705/2/6 709/2/6 711/2/6
f 709/2/6 710/2/6 711/2/6
f 710/2/6 706/2/6 712/2/6
f 711/2/6 710/2/6 712/2/6
f 713/1/6 714/1/6 716/1/6
f 716/1/6 714/1/6 717/1/6
f 715/1/6 716/1/6 719/1/6
f 719/1/6 716/1/6 720/1/6
f 717/1/6 718/1/6 721/1/6
f 721/1/6 718/1/6 722/1/6
f 720/1/6 721/1/6 723/1/6
f 723/1/6 721/1/6 724/1/6
f 725/1/6 726/1/6 727/1/6
f 727/1/6 726/1/6 728/1/6
